<?xml version="1.0" standalone="no"?>
<!DOCTYPE svg PUBLIC "-//W3C//DTD SVG 20010904//EN"
 "http://www.w3.org/TR/2001/REC-SVG-20010904/DTD/svg10.dtd">
<svg version="1.0" xmlns="http://www.w3.org/2000/svg"
 width="1300.000000pt" height="1300.000000pt" viewBox="0 0 1300.000000 1300.000000"
 preserveAspectRatio="xMidYMid meet">

<g transform="translate(0.000000,1300.000000) scale(0.100000,-0.100000)"
fill="#0079fe" stroke="none">
<path d="M0 6500 l0 -6500 6500 0 6500 0 0 6500 0 6500 -6500 0 -6500 0 0
-6500z m9798 4804 c258 -53 474 -234 572 -477 31 -79 60 -220 60 -297 0 -135
-53 -310 -131 -430 -170 -263 -491 -402 -799 -346 -174 32 -286 92 -420 226
-155 154 -218 300 -227 520 -6 149 13 245 76 375 108 225 317 386 562 434 73
14 225 12 307 -5z m-2133 -959 c156 -18 318 -46 464 -81 l108 -25 13 -57 c49
-221 196 -478 374 -656 167 -167 358 -286 569 -354 163 -53 253 -66 437 -66
162 0 194 4 386 51 18 4 38 -13 103 -89 392 -448 679 -992 820 -1554 53 -212
101 -496 101 -594 l0 -40 -632 2 -631 3 -19 110 c-139 832 -716 1565 -1498
1902 -597 258 -1281 276 -1883 51 -59 -22 -109 -39 -111 -37 -10 13 -616 1088
-616 1093 0 11 130 68 282 125 329 123 702 205 1051 231 163 12 521 4 682 -15z
m-2275 -1185 c161 -283 300 -529 310 -545 l19 -30 -85 -70 c-104 -85 -278
-262 -364 -370 -743 -934 -739 -2243 10 -3174 96 -119 243 -269 354 -361 l76
-62 -33 -57 c-17 -31 -160 -280 -316 -553 l-284 -496 -76 55 c-628 462 -1089
1093 -1345 1842 -25 73 -46 140 -46 149 0 8 30 47 68 86 166 175 271 351 340
568 44 137 62 261 62 423 0 231 -40 408 -139 610 -68 138 -145 250 -256 372
l-78 85 22 77 c169 574 570 1214 1019 1627 188 174 429 362 442 347 4 -4 139
-240 300 -523z m-2584 -1821 c301 -55 555 -305 620 -608 20 -98 18 -262 -6
-357 -30 -121 -100 -252 -182 -339 -166 -178 -346 -257 -583 -257 -90 0 -140
5 -200 21 -273 72 -480 274 -561 546 -35 120 -38 298 -6 417 59 218 209 404
404 502 51 25 127 55 168 66 86 22 252 26 346 9z m8234 -1136 c0 -48 -34 -282
-55 -388 -126 -621 -387 -1172 -791 -1667 l-102 -125 -148 0 c-393 -1 -745
-155 -1021 -447 -131 -138 -245 -322 -307 -496 -15 -41 -33 -78 -39 -82 -18
-11 -207 -73 -317 -103 -492 -137 -1050 -171 -1559 -95 -337 50 -721 163
-1003 294 l-66 31 302 526 c166 289 308 536 316 548 l15 22 105 -40 c144 -54
352 -108 512 -132 929 -137 1852 247 2416 1006 233 314 402 712 461 1085 7 41
14 81 16 88 4 9 139 12 635 12 l630 0 0 -37z m-885 -2844 c43 -11 120 -41 170
-67 73 -37 108 -64 186 -142 86 -85 102 -107 147 -200 62 -128 84 -223 84
-355 0 -132 -22 -227 -84 -355 -45 -93 -61 -115 -147 -201 -82 -82 -110 -103
-191 -142 -128 -64 -228 -88 -361 -88 -139 0 -230 21 -359 83 -93 45 -115 61
-201 147 -86 86 -102 108 -147 201 -27 58 -55 127 -61 153 -50 211 -26 393 75
589 55 104 200 248 309 305 192 100 375 123 580 72z"/>
</g>
</svg>

