<?xml version="1.0" standalone="no"?>
<!DOCTYPE svg PUBLIC "-//W3C//DTD SVG 20010904//EN"
 "http://www.w3.org/TR/2001/REC-SVG-20010904/DTD/svg10.dtd">
<svg version="1.0" xmlns="http://www.w3.org/2000/svg"
 width="1130.000000pt" height="1100.000000pt" viewBox="0 0 1130.000000 1100.000000"
 preserveAspectRatio="xMidYMid meet">

<g transform="translate(0.000000,1100.000000) scale(0.100000,-0.100000)"
fill="#fff" stroke="none">
<path d="M7791 10309 c-245 -48 -454 -209 -562 -434 -63 -130 -82 -226 -76
-375 9 -220 72 -366 227 -520 102 -102 170 -148 278 -187 146 -54 288 -65 441
-33 317 65 560 316 616 635 19 110 19 160 0 270 -57 323 -299 574 -617 639
-82 17 -234 19 -307 5z"/>
<path d="M5283 9360 c-349 -26 -722 -108 -1051 -231 -152 -57 -282 -114 -282
-125 0 -5 606 -1080 616 -1093 2 -2 52 15 111 37 602 225 1286 207 1883 -51
782 -337 1359 -1070 1498 -1902 l19 -110 631 -3 632 -2 0 40 c0 145 -83 563
-162 809 -70 223 -210 538 -330 745 -108 187 -277 422 -429 594 -65 76 -85 93
-103 89 -192 -47 -224 -51 -386 -51 -184 0 -274 13 -437 66 -410 133 -750 463
-902 877 -16 42 -34 102 -41 133 l-13 57 -108 25 c-146 35 -308 63 -464 81
-161 19 -519 27 -682 15z"/>
<path d="M3283 8617 c-584 -435 -1032 -1032 -1288 -1716 -24 -64 -54 -150 -66
-192 l-22 -77 78 -85 c206 -225 331 -474 380 -756 20 -112 19 -342 -1 -462
-48 -283 -176 -534 -386 -755 -38 -39 -68 -78 -68 -86 0 -9 21 -76 46 -149
256 -749 717 -1380 1345 -1842 l76 -55 284 496 c156 273 299 522 316 553 l33
57 -76 62 c-463 383 -782 936 -884 1534 -120 703 70 1436 520 2001 86 108 260
285 364 370 l85 70 -19 30 c-10 16 -149 262 -310 545 -161 283 -296 519 -300
523 -4 4 -52 -25 -107 -66z"/>
<path d="M760 6330 c-118 -31 -249 -102 -335 -182 -88 -82 -130 -138 -179
-236 -58 -115 -79 -206 -78 -352 0 -106 4 -139 26 -215 81 -272 288 -474 561
-546 111 -30 289 -30 397 -1 218 59 404 209 502 404 62 125 86 223 86 357 0
125 -17 210 -60 314 -98 236 -326 420 -574 466 -94 17 -260 13 -346 -9z"/>
<path d="M8075 5228 c-2 -7 -9 -47 -16 -88 -45 -286 -162 -605 -316 -866 -532
-895 -1538 -1376 -2561 -1225 -160 24 -368 78 -512 132 l-105 40 -15 -22 c-8
-12 -150 -259 -316 -548 l-302 -526 66 -31 c201 -94 516 -197 756 -249 511
-110 1070 -113 1573 -6 194 41 507 131 550 159 6 4 24 41 39 82 122 340 385
634 713 799 191 96 392 143 615 144 l148 0 102 125 c404 495 665 1046 791
1667 21 106 55 340 55 388 l0 37 -630 0 c-496 0 -631 -3 -635 -12z"/>
<path d="M8157 2380 c-89 -11 -184 -42 -282 -93 -109 -57 -254 -201 -309 -305
-101 -196 -125 -378 -75 -589 6 -26 34 -95 61 -153 45 -93 61 -115 147 -201
86 -86 108 -102 201 -147 129 -62 220 -83 359 -83 133 0 233 24 361 88 81 39
109 60 191 142 86 86 102 108 147 201 62 128 84 223 84 355 0 132 -22 227 -84
355 -45 93 -61 115 -147 200 -78 78 -113 105 -186 142 -146 75 -312 106 -468
88z"/>
</g>
</svg>
