<?xml version="1.0" encoding="UTF-8" standalone="no"?>
<!-- Created with Inkscape (http://www.inkscape.org/) -->

<svg
   xmlns:dc="http://purl.org/dc/elements/1.1/"
   xmlns:cc="http://creativecommons.org/ns#"
   xmlns:rdf="http://www.w3.org/1999/02/22-rdf-syntax-ns#"
   xmlns:svg="http://www.w3.org/2000/svg"
   xmlns="http://www.w3.org/2000/svg"
   xmlns:sodipodi="http://sodipodi.sourceforge.net/DTD/sodipodi-0.dtd"
   xmlns:inkscape="http://www.inkscape.org/namespaces/inkscape"
   version="1.1"
   id="svg862"
   width="224.44368"
   height="225.5032"
   viewBox="0 0 224.44368 225.5032"
   sodipodi:docname="xfce.png.svg"
   inkscape:version="0.92.5 (2060ec1f9f, 2020-04-08)">
  <metadata
     id="metadata868">
    <rdf:RDF>
      <cc:Work
         rdf:about="">
        <dc:format>image/svg+xml</dc:format>
        <dc:type
           rdf:resource="http://purl.org/dc/dcmitype/StillImage" />
        <dc:title></dc:title>
      </cc:Work>
    </rdf:RDF>
  </metadata>
  <defs
     id="defs866" />
  <sodipodi:namedview
     pagecolor="#ffffff"
     bordercolor="#666666"
     borderopacity="1"
     objecttolerance="10"
     gridtolerance="10"
     guidetolerance="10"
     inkscape:pageopacity="0"
     inkscape:pageshadow="2"
     inkscape:window-width="1600"
     inkscape:window-height="834"
     id="namedview864"
     showgrid="false"
     inkscape:zoom="1.8611111"
     inkscape:cx="110.27496"
     inkscape:cy="154.92716"
     inkscape:window-x="0"
     inkscape:window-y="38"
     inkscape:window-maximized="1"
     inkscape:current-layer="svg862" />
  <path
     id="path879"
     style="fill:#ffffff;fill-opacity:1;stroke:none;stroke-width:1px;stroke-linecap:butt;stroke-linejoin:miter;stroke-opacity:1"
     d="m 222.4417,10.102417 c -2.8038,0.980513 -5.18171,2.856877 -7.28785,4.906221 -2.82523,2.756304 -5.26205,5.876861 -7.61552,9.036255 -3.98789,5.395875 -7.38888,11.191159 -10.77107,16.976819 -2.75106,4.77641 -5.48934,9.56126 -8.11739,14.40668 -1.88119,3.49121 -3.601,7.0824 -4.87362,10.84392 -1.66201,4.74409 -2.72925,9.6665 -3.79744,14.57034 -0.0937,1.28214 0.16998,2.59 0.77344,3.72656 0.97887,1.08631 2.45208,1.61654 3.89258,1.64063 1.09988,-0.24532 1.94457,-1.03694 2.81445,-1.69922 2.81862,-2.80519 4.80393,-6.28553 6.93343,-9.60923 2.58559,-4.1369 5.15261,-8.28525 7.68494,-12.455 1.66532,-2.71716 3.12714,-5.55251 4.59415,-8.37974 2.88824,-5.63793 5.61249,-11.35804 8.28204,-17.10215 2.97817,-6.508326 5.90598,-13.050966 8.33024,-19.789612 0.44911,-1.31878 0.82425,-2.661523 1.14981,-4.015832 0.0998,-1.209638 -0.57227,-2.411678 -1.60742,-3.025391 -0.12633,-0.03923 -0.25476,-0.0371 -0.38477,-0.03125 z M 171.34991,0.0086668 c -1.71789,1.063544 -2.43089,3.078968 -2.99546,4.914869 -3.22855,10.1841602 -4.96721,20.7528042 -6.69683,31.2716062 -1.2315,7.76339 -2.18901,15.56668 -3.24709,23.35467 -0.57292,5.03203 -0.79923,10.19937 0.3886,15.16393 0.41921,1.28279 0.91585,2.55206 1.63867,3.69727 0.99456,0.93016 2.66013,0.63156 3.53801,-0.31411 1.99301,-1.8098 2.87968,-4.44803 3.64949,-6.94956 2.59533,-9.29416 4.07639,-18.84328 5.77169,-28.32885 0.90319,-5.3522 1.62744,-10.744875 1.83964,-16.173106 0.27825,-5.662426 0.62826,-11.32752 0.57959,-16.9990252 -0.0875,-2.464139 -0.42953,-4.93223 -1.18702,-7.284178 -0.57729,-1.259786 -1.78962,-2.477043 -3.27929,-2.353516 z M 79.863578,16.420776 c -1.50034,0.0031 -3.07435,0.212768 -4.71875,0.625 -26.85199,9.158096 -12.83514,44.203476 -8.32813,60.447266 0.21388,1.86301 0.0228,3.30146 -4.71071,2.8083 l -2.54319,-2.00361 c -3.5447,-7.73939 -6.96419,-15.5437 -10.9043,-23.09375 -2.11976,-4.03101 -4.48303,-7.93449 -7.05078,-11.69531 -1.27315,-1.84898 -2.65847,-3.64529 -4.37891,-5.10352 -2.0206,-1.75706 -4.40409,-3.17877 -7.046871,-3.73438 -1.276043,-0.29095 -2.587329,-0.40632 -3.894531,-0.41601 -0.263672,0.0599 -0.527343,0.11979 -0.791016,0.17969 -2.560732,0.79858 -4.940254,2.10313 -7.130859,3.63672 -2.361365,1.69279 -4.355337,3.94397 -5.556641,6.60351 -1.290717,2.82282 -1.949618,5.89034 -2.375,8.95117 -0.5209803,4.04668 -0.418923,8.16101 0.179688,12.19336 0.72366,5.34648 1.993052,10.5952 3.123047,15.86524 0.681755,3.09799 1.363143,6.19675 2.035156,9.29687 C 3.6491367,122.57402 -20.622963,201.72936 35.385058,222.56726 77.893678,240.93956 230.44717,168.27013 222.90655,138.20984 217.4527,115.85482 208.13731,93.842802 107.92217,79.911012 l -6.07031,-0.88477 -0.10937,-1.26562 c 0.3322,-42.1029 -7.375602,-61.369817 -21.878912,-61.339846 z"
     inkscape:connector-curvature="0" />
</svg>
